{"title":"Game.of.Thrones.S02E06.HDTV.XviD-Atilla82","uid":7249737,"size":362326552,"categoryP":"video","categoryS":"tv_shows","magnet":"?xt=urn:btih:4abf96356e723991020e8334bca411f92a4b8a40&amp;dn=Game.of.Thrones.S02E06.HDTV.XviD-Atilla82&amp;tr=udp%3A%2F%2Ftracker.openbittorrent.com%3A80&amp;tr=udp%3A%2F%2Fopen.demonii.com%3A1337&amp;tr=udp%3A%2F%2Ftracker.coppersurfer.tk%3A6969&amp;tr=udp%3A%2F%2Fexodus.desync.com%3A6969","seeders":1,"leechers":0,"uploader":"Atilla82","files":3,"time":1336416490,"description":"Game.of.Thrones.S02E06.HDTV.XviD-Atilla82\n\nscreenshots included in torrent\n\nGame of Thrones (2012)\n\n &lt;a href=&quot;\nhttp://www.imdb.com/title/tt0944947/&quot; rel=&quot;nofollow&quot; target=&quot;_NEW&quot;&gt;\nhttp://www.imdb.com/title/tt0944947/&lt;/a&gt;\n\n\n\nSeven noble families fight for control of the mythical land of Westeros.\n\n\n\nlanguage: English\n\n\n\n\nGeneral\nComplete name : Game.of.Thrones.S02E06.HDTV.XviD-Atilla82.avi\nFormat : AVI\nFormat/Info : Audio Video Interleave\nFile size : 345 MiB\nDuration : 56mn 48s\nOverall bit rate : 850 Kbps\nMovie name : Game.of.Thrones.S02E06\nDirector : Atilla82\nSubject : Game.of.Thrones.S02E06\nWriting application : VirtualDubMod 1.5.10.2 (build 2540/release)\nWriting library : VirtualDubMod build 2540/release\n\nVideo\nID : 0\nFormat : MPEG-4 Visual\nFormat profile : Advanced Simple@L5\nFormat settings, BVOP : No\nFormat settings, QPel : Yes\nFormat settings, GMC : No warppoints\nFormat settings, Matrix : Default (H.263)\nCodec ID : XVID\nCodec ID/Hint : XviD\nDuration : 56mn 48s\nBit rate : 713 Kbps\nWidth : 680 pixels\nHeight : 380 pixels\nDisplay aspect ratio : 16:9\nFrame rate : 23.976 fps\nColor space : YUV\nChroma subsampling : 4:2:0\nBit depth : 8 bits\nScan type : Progressive\nCompression mode : Lossy\nBits/(Pixel*Frame) : 0.115\nStream size : 290 MiB (84%)\nWriting library : XviD 64\n\nAudio\nID : 1\nFormat : MPEG Audio\nFormat version : Version 1\nFormat profile : Layer 3\nCodec ID : 55\nCodec ID/Hint : MP3\nDuration : 56mn 48s\nBit rate mode : Constant\nBit rate : 128 Kbps\nChannel(s) : 2 channels\nSampling rate : 48.0 KHz\nCompression mode : Lossy\nStream size : 52.0 MiB (15%)\nAlignment : Aligned on interleaves\nInterleave, duration : 42 ms (1.00 video frame)\nInterleave, preload duration : 504 ms\nWriting library : LAME3.98.4\n\n\n","torrent":{"xt":"urn:btih:4abf96356e723991020e8334bca411f92a4b8a40","amp;dn":"Game.of.Thrones.S02E06.HDTV.XviD-Atilla82","amp;tr":["udp%3A%2F%2Ftracker.openbittorrent.com%3A80","udp%3A%2F%2Fopen.demonii.com%3A1337","udp%3A%2F%2Ftracker.coppersurfer.tk%3A6969","udp%3A%2F%2Fexodus.desync.com%3A6969"],"infoHash":"4abf96356e723991020e8334bca411f92a4b8a40","infoHashBuffer":{"type":"Buffer","data":[74,191,150,53,110,114,57,145,2,14,131,52,188,164,17,249,42,75,138,64]},"announce":[],"urlList":[]}}